<?xml version="1.0" encoding="UTF-8"?>
<svg id="Layer_2" data-name="Layer 2" xmlns="http://www.w3.org/2000/svg" viewBox="0 0 512 512">
  <defs>
    <style>
      .cls-1 {
        fill: #333336;
        stroke-width: 0px;
      }
    </style>
  </defs>
  <g id="Layer_1-2" data-name="Layer 1">
    <path class="cls-1" d="m256,512c141.38,0,256-114.62,256-256S397.38,0,256,0,0,114.62,0,256s114.62,256,256,256Zm-24-168v-64h-64c-13.3,0-24-10.7-24-24s10.7-24,24-24h64v-64c0-13.3,10.7-24,24-24s24,10.7,24,24v64h64c13.3,0,24,10.7,24,24s-10.7,24-24,24h-64v64c0,13.3-10.7,24-24,24s-24-10.7-24-24Z"/>
  </g>
</svg>